<svg width="78" height="79" viewBox="0 0 78 79" fill="none" xmlns="http://www.w3.org/2000/svg">
<g clip-path="url(#clip0_1_684)">
<path d="M78 0.234375H0V78.2344H78V0.234375Z" fill="#F1F1F1"/>
<path d="M52.5839 43.961H24.041L17.6309 64.0517H58.9941L52.5839 43.961Z" fill="#FF5634"/>
<path d="M40.9538 27.4161L39.0157 13.8442C38.8998 13.0311 37.7263 13.0311 37.6093 13.8442L35.6711 27.4161H40.9538Z" fill="#929292"/>
<path d="M48.7396 30.1159L54.7786 17.8086C55.1402 17.0712 54.17 16.4105 53.6169 17.0168L44.3728 27.1413L48.7396 30.1159Z" fill="#929292"/>
<path d="M50.9045 37.639L62.2192 29.897C62.8963 29.4338 62.3775 28.3808 61.5975 28.636L48.5681 32.9L50.9045 37.639Z" fill="#929292"/>
<path d="M49.3091 44.9473L62.9731 43.8293C63.7921 43.7619 63.8618 42.5908 63.0582 42.4265L49.6282 39.6729L49.3091 44.9473Z" fill="#929292"/>
<path d="M32.2521 27.1413L23.008 17.0168C22.4549 16.4105 21.4847 17.0712 21.8463 17.8086L27.8853 30.1159L32.2521 27.1413Z" fill="#929292"/>
<path d="M28.0567 32.9012L15.0273 28.636C14.2473 28.3808 13.7273 29.4338 14.4057 29.897L25.7203 37.639L28.0567 32.9012Z" fill="#929292"/>
<path d="M26.9978 39.6729L13.5678 42.4265C12.763 42.5919 12.8339 43.7631 13.6529 43.8293L27.3169 44.9473L26.9978 39.6729Z" fill="#929292"/>
<path d="M45.5014 56.9619H38.3125H31.1235C31.1235 56.9619 19.9945 56.9619 15.8582 65.2346H38.3125H60.7668C56.6305 56.9619 45.5014 56.9619 45.5014 56.9619Z" fill="#CACACA"/>
<path d="M38.3124 23.8711C29.703 23.8711 24.1307 28.0984 24.1307 37.04C24.1307 52.8608 38.3124 54.5981 38.3124 54.5981C38.3124 54.5981 52.4941 52.8608 52.4941 37.04C52.4941 28.0984 46.9219 23.8711 38.3124 23.8711Z" fill="#CACACA"/>
<path d="M38.3124 28.5977C28.5696 28.5977 26.4944 34.6781 26.4944 40.4086C26.4944 48.2263 30.7241 52.2338 30.7241 52.2338H45.8996C45.8996 52.2338 50.1293 48.2263 50.1293 40.4086C50.1305 34.6781 48.0552 28.5977 38.3124 28.5977Z" fill="#929292"/>
<path d="M45.4033 50.7813H31.2217V58.6155C31.2217 58.6155 31.2217 62.87 38.3125 62.87C45.4033 62.87 45.4033 58.6155 45.4033 58.6155V50.7813Z" fill="#929292"/>
<path d="M47.7668 41.8925C47.7668 34.7237 43.5277 32.1426 38.3124 32.1426C33.097 32.1426 28.8579 34.7237 28.8579 41.8925C28.8579 42.4515 28.8579 44.5835 28.8579 45.1425C28.8579 52.3089 33.097 58.1423 38.3124 58.1423C43.5277 58.1423 47.7668 52.3089 47.7668 45.1425C47.7668 44.5835 47.7668 42.4515 47.7668 41.8925Z" fill="#CACACA"/>
</g>
<defs>
<clipPath id="clip0_1_684">
<path d="M0 24.2344C0 10.9795 10.7452 0.234375 24 0.234375H54C67.2548 0.234375 78 10.9795 78 24.2344V54.2344C78 67.4892 67.2548 78.2344 54 78.2344H24C10.7452 78.2344 0 67.4892 0 54.2344V24.2344Z" fill="white"/>
</clipPath>
</defs>
</svg>
