<svg width="78" height="79" viewBox="0 0 78 79" fill="none" xmlns="http://www.w3.org/2000/svg">
<g clip-path="url(#clip0_1_658)">
<path d="M78 0.234375H0V78.2344H78V0.234375Z" fill="#F1F1F1"/>
<path d="M16.9611 54.8936C29.7274 50.9185 32.6598 28.216 32.6598 28.216L33.9241 28.2149C33.9241 28.2149 34.3602 45.6141 27.4006 54.8936H16.9611Z" fill="#E8AD8C"/>
<path d="M33.2002 28.4119L44.7997 16.8125C44.171 16.6825 43.5191 16.6153 42.8521 16.6153C37.521 16.6153 33.2002 20.9361 33.2002 26.2672V28.4119Z" fill="#4CAF50"/>
<path d="M33.2002 28.215H51.728C49.6111 25.4021 46.2554 23.5752 42.4647 23.5752C38.674 23.5752 35.3171 25.4021 33.2002 28.215Z" fill="#4CAF50"/>
<path d="M35.1698 28.2149H33.0123L45.7717 40.9743C45.89 40.3351 45.9596 39.6786 45.9596 39.0047C45.9596 33.0449 41.1285 28.2149 35.1698 28.2149Z" fill="#4CAF50"/>
<path d="M33.2003 28.4119L21.6008 16.8125C22.2295 16.6825 22.8814 16.6153 23.5484 16.6153C28.8795 16.6153 33.2003 20.9361 33.2003 26.2672V28.4119Z" fill="#4CAF50"/>
<path d="M33.2003 28.215H14.6725C16.7894 25.4021 20.1451 23.5752 23.9358 23.5752C27.7265 23.5752 31.0834 25.4021 33.2003 28.215Z" fill="#4CAF50"/>
<path d="M31.2306 28.2149H33.3881L20.6287 40.9743C20.5104 40.3351 20.4408 39.6786 20.4408 39.0047C20.4408 33.0449 25.272 28.2149 31.2306 28.2149Z" fill="#4CAF50"/>
<path d="M37.0269 53.3771L52.9193 61.8528H16.961C15.6793 61.8528 14.6411 60.8147 14.6411 59.5329V52.5733H33.8115C34.9332 52.5733 36.0375 52.8493 37.0269 53.3771Z" fill="#FDB52A"/>
<path d="M59.8791 53.7332C57.957 53.7332 56.3992 52.5733 56.3992 52.5733C56.3992 52.5733 54.8414 53.7332 52.9194 53.7332C50.9973 53.7332 49.4395 52.5733 49.4395 52.5733C49.4395 52.5733 47.8817 53.7332 45.9597 53.7332C44.0377 53.7332 42.4799 52.5733 42.4799 52.5733C42.4799 52.5733 40.9221 53.7332 39 53.7332C38.1811 53.7332 37.4376 53.5209 36.8425 53.2785L52.9194 61.8528H61.039C62.3207 61.8528 63.3589 60.8147 63.3589 59.5329V52.5733C63.3589 52.5733 61.8011 53.7332 59.8791 53.7332Z" fill="#2AA4F4"/>
</g>
<defs>
<clipPath id="clip0_1_658">
<path d="M0 24.2344C0 10.9795 10.7452 0.234375 24 0.234375H54C67.2548 0.234375 78 10.9795 78 24.2344V54.2344C78 67.4892 67.2548 78.2344 54 78.2344H24C10.7452 78.2344 0 67.4892 0 54.2344V24.2344Z" fill="white"/>
</clipPath>
</defs>
</svg>
