<svg width="78" height="80" viewBox="0 0 78 80" fill="none" xmlns="http://www.w3.org/2000/svg">
<g clip-path="url(#clip0_1_644)">
<path d="M78 1.18359H0V79.1836H78V1.18359Z" fill="#F1F1F1"/>
<path d="M40.0781 23.4746H37.9219V31.0216H40.0781V23.4746Z" fill="#E13F1F"/>
<path d="M46.5469 23.4746H44.3906V31.0216H46.5469V23.4746Z" fill="#E13F1F"/>
<path d="M59.4845 23.4746H57.3282V31.0216H59.4845V23.4746Z" fill="#E13F1F"/>
<path d="M20.6718 23.4746H18.5155V31.0216H20.6718V23.4746Z" fill="#E13F1F"/>
<path d="M27.1406 23.4746H24.9844V31.0216H27.1406V23.4746Z" fill="#E13F1F"/>
<path d="M33.6094 23.4746H31.4531V31.0216H33.6094V23.4746Z" fill="#E13F1F"/>
<path d="M53.0158 23.4746H50.8595V31.0216H53.0158V23.4746Z" fill="#E13F1F"/>
<path d="M61.6408 31.0215H16.3593V35.334C19.9322 35.334 22.828 38.2299 22.828 41.8028V51.506H29.2968V45.0372C29.2968 39.6778 33.6406 35.334 39 35.334C44.3594 35.334 48.7032 39.6778 48.7032 45.0372V51.506H55.172V41.8028C55.172 38.2299 58.0678 35.334 61.6408 35.334V31.0215Z" fill="#E13F1F"/>
<path d="M58.4064 49.3487C56.6199 49.3487 55.172 48.2705 55.172 48.2705C55.172 48.2705 53.724 49.3487 51.9376 49.3487C50.1511 49.3487 48.7032 48.2705 48.7032 48.2705C48.7032 48.2705 47.2553 49.3487 45.4688 49.3487C43.6823 49.3487 42.2344 48.2705 42.2344 48.2705C42.2344 48.2705 40.7865 49.3487 39 49.3487C37.2135 49.3487 35.7656 48.2705 35.7656 48.2705C35.7656 48.2705 34.3177 49.3487 32.5312 49.3487C30.7448 49.3487 29.2968 48.2705 29.2968 48.2705C29.2968 48.2705 27.8489 49.3487 26.0624 49.3487C24.276 49.3487 22.828 48.2705 22.828 48.2705C22.828 48.2705 21.3801 49.3487 19.5936 49.3487C17.8072 49.3487 16.3593 48.2705 16.3593 48.2705V56.8956C16.3593 58.0869 17.3242 59.0518 18.5155 59.0518H42.2344H51.9376H59.4845C60.6758 59.0518 61.6408 58.0869 61.6408 56.8956V48.2705C61.6408 48.2705 60.1928 49.3487 58.4064 49.3487Z" fill="#2AA4F4"/>
<path d="M61.6408 21.3174H16.3593V23.4737H61.6408V21.3174Z" fill="#FF5634"/>
</g>
<defs>
<clipPath id="clip0_1_644">
<path d="M0 24.2344C0 10.9795 10.7452 0.234375 24 0.234375H54C67.2548 0.234375 78 10.9795 78 24.2344V55.2344C78 68.4892 67.2548 79.2344 54 79.2344H24C10.7452 79.2344 0 68.4892 0 55.2344V24.2344Z" fill="white"/>
</clipPath>
</defs>
</svg>
