<svg width="78" height="79" viewBox="0 0 78 79" fill="none" xmlns="http://www.w3.org/2000/svg">
<g clip-path="url(#clip0_1_671)">
<path d="M78 0.234375H0V78.2344H78V0.234375Z" fill="#F1F1F1"/>
<path d="M47.2031 93.6718H30.7969L34.8984 44.4532H43.1015L47.2031 93.6718Z" fill="#929292"/>
<path d="M37.3594 93.6718H30.7969L34.8984 44.4532H37.3594V93.6718Z" fill="#CACACA"/>
<path d="M39.5469 24.7656C39.3314 24.7657 39.118 24.7464 38.9189 24.709C38.7198 24.6715 38.5389 24.6166 38.3865 24.5473C38.2341 24.4781 38.1133 24.3958 38.0309 24.3053C37.9485 24.2148 37.9061 24.1178 37.9063 24.0199V9.10511C37.9063 8.90733 38.0791 8.71765 38.3868 8.5778C38.6945 8.43795 39.1118 8.35938 39.5469 8.35938C39.982 8.35938 40.3993 8.43795 40.707 8.5778C41.0146 8.71765 41.1875 8.90733 41.1875 9.10511V24.0199C41.1876 24.1178 41.1453 24.2148 41.0629 24.3053C40.9805 24.3958 40.8596 24.4781 40.7072 24.5473C40.5549 24.6166 40.374 24.6715 40.1749 24.709C39.9758 24.7464 39.7624 24.7657 39.5469 24.7656Z" fill="#1D88FE"/>
<path d="M33.3489 21.4844H44.6509C45.5212 21.4844 46.3558 21.8301 46.9711 22.4455C47.5865 23.0608 47.9322 23.8954 47.9322 24.7656V31.3281H30.0676V24.7656C30.0676 23.8954 30.4133 23.0608 31.0287 22.4455C31.644 21.8301 32.4786 21.4844 33.3489 21.4844Z" fill="#8FC3FF"/>
<path d="M52.125 31.3282H25.875C24.0628 31.3282 22.5938 32.7972 22.5938 34.6094C22.5938 36.4216 24.0628 37.8906 25.875 37.8906H52.1249C53.9371 37.8906 55.4062 36.4216 55.4062 34.6094C55.4062 32.7972 53.9371 31.3282 52.125 31.3282Z" fill="#1D88FE"/>
<path d="M59.7812 37.8906H18.2187C17.0106 37.8906 16.0312 38.87 16.0312 40.0781C16.0312 41.2863 17.0106 42.2656 18.2187 42.2656H59.7812C60.9893 42.2656 61.9687 41.2863 61.9687 40.0781C61.9687 38.87 60.9893 37.8906 59.7812 37.8906Z" fill="#8FC3FF"/>
<path d="M52.125 42.2656H25.875C24.0628 42.2656 22.5938 43.7347 22.5938 45.5469C22.5938 47.3591 24.0628 48.8281 25.875 48.8281H52.1249C53.9371 48.8281 55.4062 47.3591 55.4062 45.5469C55.4062 43.7347 53.9371 42.2656 52.125 42.2656Z" fill="#1D88FE"/>
</g>
<defs>
<clipPath id="clip0_1_671">
<path d="M0 24.2344C0 10.9795 10.7452 0.234375 24 0.234375H54C67.2548 0.234375 78 10.9795 78 24.2344V54.2344C78 67.4892 67.2548 78.2344 54 78.2344H24C10.7452 78.2344 0 67.4892 0 54.2344V24.2344Z" fill="white"/>
</clipPath>
</defs>
</svg>
